<?xml version="1.0" encoding="utf-8"?>
<!-- Generator: Adobe Illustrator 26.0.3, SVG Export Plug-In . SVG Version: 6.00 Build 0)  -->
<svg version="1.1" id="Capa_1" xmlns="http://www.w3.org/2000/svg" xmlns:xlink="http://www.w3.org/1999/xlink" x="0px" y="0px"
	 viewBox="0 0 533.31 550.59" style="enable-background:new 0 0 533.31 550.59;" xml:space="preserve">
<style type="text/css">
	.st0{fill:#6C29FF;}
	.st1{fill:#89EFC8;}
</style>
<g>
	<path class="st0" d="M367.72,111.87c5.57-9.59,5.37-13.94,0.17-16.96c-4.9-2.85-9.49-1.28-18.89,13.72
		c4.88,3.11,10.45,6.21,15.2,8.83C365.07,116.19,366.24,114.42,367.72,111.87z"/>
	<path class="st0" d="M419.08,216.29c-8.75,2.46-10.04,4.42-8.73,9.07c1.56,5.57,7.46,7.34,15.86,4.98
		c2.16-0.61,4.54-1.28,7.04-1.98c-0.23-2.14-0.76-4.44-1.43-6.83C430.26,215.96,427.6,213.89,419.08,216.29z"/>
	<path class="st0" d="M134.21,176.28c7.13,5.63,9.47,5.53,12.47,1.73c3.58-4.54,1.56-10.35-5.29-15.76
		c-1.76-1.39-3.7-2.93-5.74-4.54c-1.59,1.45-3.15,3.23-4.69,5.17C127.37,167.42,127.26,170.79,134.21,176.28z"/>
	<path class="st0" d="M277.27,89.02c0.14-1.53,0.3-3.65,0.35-6.6c0.19-11.09-2.11-14.79-8.13-14.89c-5.66-0.1-8.91,3.51-9.8,21.2
		C265.47,89.05,271.84,89.04,277.27,89.02z"/>
	<path class="st0" d="M96.96,216.15c3.07-9.55,1.12-13.89-12.81-18.37c-13.59-4.37-18.15-1.74-20.86,6.68
		c-0.47,1.46-1.41,4.38-2.05,6.78c11.91,3.83,23.37,7.51,33.74,10.72C95.52,220.64,96.21,218.51,96.96,216.15z"/>
	<path class="st0" d="M110.27,379.5c-3.01-4.94-6.13-6.21-13.69-1.61c-7.76,4.73-8.47,6.96-5.96,11.09
		c3.01,4.94,9.16,5.06,16.62,0.52c1.91-1.17,4.03-2.46,6.25-3.81C112.68,383.69,111.56,381.61,110.27,379.5z"/>
	<path class="st0" d="M172.35,407.34c-4.34-3.45-10.15-3.54-16.83,4.86l-20.34,25.58c0.97,2.58,2.85,5.13,5.81,7.48
		c5.17,4.11,10.29,2.61,23.14-13.56C176.68,415.92,176.78,410.87,172.35,407.34z"/>
	<path class="st0" d="M453.46,319.8c-2.19-0.47-4.61-1-7.15-1.54c-0.79,2-1.41,4.28-1.93,6.71c-1.22,5.65,0.17,8.73,8.82,10.6
		c8.88,1.92,10.94,0.79,11.96-3.94C466.37,325.97,461.99,321.64,453.46,319.8z"/>
	<path class="st0" d="M266.42,20.93c-139.16,0-251.97,112.81-251.97,251.97s112.81,251.97,251.97,251.97
		s251.97-112.81,251.97-251.97S405.58,20.93,266.42,20.93z M450.88,144.35c4.62,1.78,24.08,8.9,28.14,10.2
		c-1.53,2.97-3.78,7.04-5.39,10.33c-3.51-2.45-21.07-12.61-25.26-15.06C449.35,148.01,450.31,145.93,450.88,144.35z M456.9,237.89
		c-11.25,3.16-19.29,5.06-29.29,7.87c-8.18,2.3-18.5,5.69-21.12,7.29l-3.48-12.38c-0.77-2.73-0.44-3.31,2.63-4.17
		c1.7-0.48,3.78-0.94,5.86-1.4l-0.19-0.68c-7.33,0.1-12.03-3.97-14.17-11.58c-2.68-9.54-0.09-16.03,15.7-20.47
		c15.45-4.34,22.51,1.15,26.37,14.9c0.93,3.29,1.71,6.51,1.81,9.05c3.89-0.97,7.87-2.09,11.51-3.11c4.66-1.31,7.26-4.25,5.99-8.79
		c-1.37-4.88-4.61-6.79-15.04-3.37c-0.28-1.88-0.95-4.27-1.56-6.43c-0.86-3.07-1.81-5.99-2.72-7.94
		c15.7-5.64,27.88-2.44,32.41,13.69C475.9,225.69,469.74,234.28,456.9,237.89z M468.14,268.89c0,7.5-6.08,13.58-13.58,13.58
		c-7.5,0-13.58-6.08-13.58-13.58c0-7.5,6.08-13.58,13.58-13.58C462.06,255.31,468.14,261.39,468.14,268.89z M445.07,153.98
		l7.95,13.4c-9.36,5.28-18.79,10.88-30.77,17.98c-14.61,8.67-23.14,13.73-32.15,19.35l-7.95-13.4c9.6-5.56,20.05-11.76,32.64-19.23
		C426.66,165.04,435.99,159.5,445.07,153.98z M266.42,396.75c-70.61,0-127.86-57.24-127.86-127.86
		c0-70.61,57.24-127.86,127.86-127.86s127.86,57.24,127.86,127.86C394.28,339.51,337.04,396.75,266.42,396.75z M335.5,403.22
		c-6.82,4.01-9.57,2.34-11.13-0.3c-1.67-2.85-1.22-5.58,5.39-9.46c6.41-3.77,9.01-2.83,10.68,0.02
		C342,396.11,342.01,399.39,335.5,403.22z M223.9,409.35c-1.2,2.82-3.83,4.78-10.78,1.82c-7.27-3.1-7.57-6.31-6.37-9.13
		c1.3-3.04,3.76-4.3,10.81-1.29C224.4,403.66,225.19,406.31,223.9,409.35z M412.32,114.09l9,9.68c-2.85,2.48-5.87,5.13-9.49,8.33
		l0.48,0.69c8.78-4.94,14.76-4.05,19.25,0.96c1.37,1.47,2.55,3.27,3.41,4.89c-3,2.14-8.68,6.61-12.21,9.74
		c-0.77-1.7-2.13-3.5-3.33-4.8c-5.31-5.54-9.49-5.36-19.26,3.71c-9.68,8.99-22.39,20.8-30.2,28.69l-11.24-12.1
		c7.6-6.9,15.82-14.53,27.49-25.37C397.36,128.15,404.97,121.09,412.32,114.09z M374.51,84.69c14.08,8.18,13.75,19.32,4.79,34.72
		c-2.91,5-6.49,10.7-8.18,13.13c-3.72-2.3-9.57-5.84-15.18-9.1c-4.39-2.55-8.73-4.94-11.79-6.72c-8.17,14.77-7.42,19.57-1.71,22.89
		c5.3,3.08,8.39,1.06,13.18-6.94c1.57,1.05,3.55,2.34,5.9,3.7c2.45,1.42,4.34,2.39,6.04,3.23c-8.28,14.71-16.07,19.19-31.27,10.35
		c-13.37-7.77-16.61-20.03-2.5-44.31C348.2,80.87,361.24,76.98,374.51,84.69z M308.01,89.17c4.48-16.27,8.52-30.95,12.01-44.55
		l15.25,4.2c-3.67,12.45-7.4,25.99-12.63,44.99c-4.92,17.86-8.2,29.81-11.72,43.04l-15.13-4.16
		C299.37,120.57,303.66,104.98,308.01,89.17z M244.97,93.55c0.48-28.67,9.97-38.42,25.31-38.17c16.28,0.27,21.43,10.16,21.13,27.97
		c-0.1,5.78-0.45,12.5-0.73,15.45c-4.36-0.19-11.2-0.42-17.69-0.53c-5.07-0.08-10.03-0.05-13.57-0.11
		c0.07,16.88,3.07,20.7,9.68,20.81c6.14,0.1,7.84-3.17,8.12-12.49c1.89,0.15,4.24,0.31,6.96,0.35c2.83,0.05,4.96-0.03,6.85-0.12
		c-0.05,16.88-4.66,24.59-22.24,24.29C253.32,130.74,244.5,121.63,244.97,93.55z M193.09,54.94c2.3-0.53,5.14-1.34,7.64-2.05
		c2.5-0.71,5.11-1.45,7.35-2.21l3.51,13.23c4.31-1.23,8.74-2.48,12.91-3.79c0.93,4.15,2.3,9.4,3.47,13.49
		c-3.21,0.79-7.9,2-12.89,3.42c3.11,11.38,6.61,24.13,10.58,38.09c1.35,4.77,3.59,5.73,7.68,4.57c2.5-0.71,4.72-1.95,6.36-3.52
		c1.57,4.22,4.17,9.49,5.65,12.99c-3.68,2.15-5.76,3.48-10.53,4.83c-13.51,3.84-20.29-2.33-23.48-13.57
		c-3.1-10.9-6.92-24.78-10.97-39.45l-5.48,1.43c-1.06-3.75-2.61-9.19-3.76-12.79l5.71-1.5L193.09,54.94z M152.12,88.77
		c13.54-8.61,21.94-6.4,29.1,4.85c0.82,1.29,1.77,2.79,2.52,4.41c-1.66,0.91-4.11,2.33-6.5,3.85c-2.19,1.39-4.22,2.82-5.55,3.81
		c-0.47-0.96-1.17-2.05-2.12-3.55c-3.1-4.88-5.96-5.86-10.84-2.75c-4.78,3.04-5.46,5.71-2.92,9.69c2.6,4.08,6.24,6.52,16.08,4.17
		c13.62-3.21,22.59-0.11,29.18,10.25c6.71,10.55,5.13,20.37-8.41,28.99c-14.83,9.44-23.47,5.98-30.37-4.87
		c-1.27-1.99-2.05-3.45-2.52-4.41c1.46-0.79,3.71-2.08,6.4-3.79c2.19-1.39,4.32-2.89,5.75-3.94c0.82,1.29,1.36,2.35,1.99,3.35
		c3.29,5.18,6.42,6.13,11.89,2.64c4.68-2.98,5.17-5.95,2.51-10.13c-2.6-4.08-7.1-6.11-16.05-3.91c-14.97,3.51-23.1-0.69-29.3-10.45
		C135.97,106.04,139.27,96.94,152.12,88.77z M98.56,137.27c9.88-12.5,20.46-12.56,30.92-4.29c9.17,7.24,15.43,12.64,23.57,19.08
		c6.67,5.27,15.48,11.63,18.3,12.81l-7.98,10.09c-1.76,2.22-2.42,2.3-4.92,0.32c-1.39-1.1-2.98-2.51-4.57-3.92l-0.44,0.56
		c4.38,5.87,3.85,12.07-1.05,18.27c-6.15,7.78-12.92,9.49-25.79-0.68c-12.59-9.95-12.29-18.89-3.44-30.09
		c2.12-2.68,4.26-5.2,6.26-6.78c-3.07-2.58-6.31-5.14-9.28-7.48c-3.8-3-7.7-3.38-10.63,0.32c-3.15,3.98-2.79,7.72,6.11,14.15
		c-1.36,1.33-2.89,3.28-4.28,5.04c-1.98,2.5-3.79,4.98-4.82,6.87C92.73,162.15,88.17,150.42,98.56,137.27z M50.23,197.66
		c5.23-16.29,15.88-22.41,39.13-14.94c22.13,7.11,27.89,18.51,22.51,35.24c-1.08,3.37-1.85,5.36-2.93,8.35
		c8.91,2.74,16.73,5.01,22.91,6.62l-5.31,16.51c-12.02-4.24-24.01-8.21-41.98-13.99c-17.86-5.74-30.82-9.78-42.27-13.09
		L50.23,197.66z M91.88,268.89c0,7.5-6.08,13.58-13.58,13.58s-13.58-6.08-13.58-13.58c0-7.5,6.08-13.58,13.58-13.58
		S91.88,261.39,91.88,268.89z M54.6,329.65c-3.27-15.95,4.97-26.31,32.02-31.86c26.13-5.36,38.79,0.6,42.2,17.25
		c2.99,14.57-2.06,24.03-21.02,27.92c-1.39,0.28-2.89,0.59-4.53,0.81c-0.24-1.76-0.79-4.42-1.33-7.08c-0.52-2.54-1.07-5.2-1.54-6.91
		c1.64-0.22,3.03-0.5,4.19-0.74c9.83-2.01,11.8-4.71,10.45-11.3c-1.4-6.82-5.51-9.23-25.27-5.18c-20.21,4.26-22.76,7.68-21.31,14.73
		c1.33,6.47,5.25,7.96,12.64,6.44l4.16-0.85c0.17,2.01,0.67,4.44,1.19,6.98c0.55,2.66,1.11,5.43,1.72,7.23
		c-1.48,0.42-2.75,0.68-4.14,0.97C69.35,351.08,58.37,348.03,54.6,329.65z M87.68,405.69c-1.47-2.42-1.32-3.07,1.4-4.72
		c1.51-0.92,3.39-1.92,5.26-2.93l-0.37-0.6c-7.03,2.07-12.65-0.58-16.76-7.33c-5.16-8.46-4.41-15.41,9.59-23.94
		c13.7-8.35,21.98-4.96,29.41,7.23c1.78,2.92,3.4,5.81,4.18,8.23c3.49-1.99,7.01-4.13,10.24-6.1c4.13-2.52,5.85-6.05,3.39-10.08
		c-2.64-4.33-6.27-5.3-15.39,0.81c-0.78-1.73-2.07-3.85-3.24-5.77c-1.66-2.72-3.35-5.28-4.76-6.91c13.59-9.66,26.18-9.87,34.9,4.44
		c8.29,13.6,4.67,23.54-6.72,30.48c-9.98,6.08-17.21,10.07-26.08,15.47c-7.26,4.42-16.28,10.47-18.37,12.71L87.68,405.69z
		 M138.08,459.54c-6.19-4.92-7.92-10.52-7.16-15.64l-0.28-0.22c-1.6,2.2-3.36,4.42-5.2,6.72c-2.79,3.51-5.2,6.72-8.06,10.33
		l-12.47-9.91c7.53-9.09,20.25-24.9,32.74-40.6c9.18-11.55,16.21-20.58,22.07-28.13l12.38,9.84c-1.03,1.29-2,2.33-3.18,3.81
		c-0.81,1.02-1.54,1.94-2.44,2.88l0.48,0.53c6.02-3.21,12.26-2.91,18.36,1.94c9.42,7.49,8.13,18.22-9.28,40.11
		C158.56,463.17,146.94,466.59,138.08,459.54z M189.32,486.58l-14.33-6.11c4.46-10.16,9.22-21.34,14.96-34.8
		c5.41-12.7,9.67-22.69,13.72-32.5l14.33,6.11c-4.43,9.79-8.73,19.88-14.19,32.69C197.15,467.6,193.26,476.72,189.32,486.58z
		 M252.74,441.7c-3.22-0.74-7.95-1.78-13.05-2.76c-2.36,11.56-4.98,24.52-7.74,38.77c-0.94,4.87,0.62,6.73,4.79,7.54
		c2.55,0.49,5.09,0.38,7.27-0.28c-0.5,4.47-0.56,10.35-0.81,14.15c-4.26,0.26-6.71,0.5-11.57-0.44
		c-13.79-2.67-17.06-11.23-14.84-22.7c2.15-11.12,5-25.24,8.01-40.16l-5.54-1.19c0.74-3.82,1.82-9.38,2.42-13.11l5.77,1.24
		l2.6-13.44c2.29,0.56,5.19,1.12,7.74,1.62s5.21,1.01,7.55,1.34l-2.83,13.39c4.4,0.85,8.92,1.73,13.23,2.44
		C254.7,432.22,253.55,437.53,252.74,441.7z M298.1,498.57c-2.82,0.29-3.33-0.14-3.66-3.31c-0.18-1.76-0.27-3.89-0.37-6.01
		l-0.7,0.07c-1.17,7.23-5.99,11.16-13.85,11.95c-9.86,1-15.81-2.67-17.46-18.99c-1.61-15.97,5.02-21.97,19.22-23.41
		c3.4-0.34,6.7-0.56,9.23-0.22c-0.29-4-0.7-8.11-1.08-11.87c-0.49-4.81-2.93-7.89-7.63-7.41c-5.05,0.51-7.49,3.37-5.92,14.24
		c-1.9-0.04-4.37,0.2-6.6,0.43c-3.17,0.32-6.21,0.75-8.29,1.31c-2.85-16.43,2.4-27.88,19.07-29.56c15.85-1.6,23.25,5.95,24.59,19.22
		c1.17,11.62,1.65,19.88,2.69,30.21c0.85,8.45,2.41,19.21,3.53,22.06L298.1,498.57z M334.56,489.8
		c-4.21-11.91-9.89-27.04-15.65-42.4c-5.92-15.8-11.27-30.05-16.42-43.12l14.81-5.55c4.34,12.24,9.27,25.38,16.18,43.84
		c6.5,17.35,10.85,28.95,15.77,41.72L334.56,489.8z M368.56,475.08c-5.52-9.62-11.68-20.1-19.09-32.72
		c-7-11.9-12.5-21.26-17.98-30.36l13.43-7.89c5.24,9.38,10.8,18.84,17.85,30.84c8.61,14.65,13.63,23.19,19.21,32.23L368.56,475.08z
		 M418.32,439.71c-12.53,12.33-21.7,10.76-30.72,1.59c-1.66-1.68-2.73-2.94-3.39-3.78c1.26-1.07,3.19-2.81,5.46-5.05
		c1.85-1.82,3.62-3.73,4.8-5.05c1.08,1.09,1.82,2.02,2.65,2.86c4.3,4.37,7.56,4.65,12.18,0.1c3.95-3.89,3.81-6.9,0.33-10.43
		c-3.39-3.45-8.22-4.49-16.52-0.47c-13.9,6.56-22.73,4.16-30.84-4.09c-9.1-9.25-7.78-18.84,3.07-29.51
		c11.44-11.26,20.11-10.85,29.46-1.35c1.08,1.09,2.32,2.36,3.39,3.78c-1.43,1.24-3.53,3.14-5.55,5.13
		c-1.85,1.82-3.53,3.64-4.63,4.89c-0.66-0.84-1.57-1.77-2.81-3.03c-4.06-4.12-7.06-4.48-11.18-0.42c-4.04,3.97-4.14,6.73-0.83,10.09
		c3.39,3.45,7.47,5.07,16.6,0.72c12.65-5.99,22.07-4.83,30.67,3.92C429.26,418.52,429.76,428.45,418.32,439.71z M458.16,384.97
		c-6.85,12.26-16.01,12.68-26.21,6.98c-9.89-5.53-22.4-12.65-35.62-20.18l-2.87,4.89c-3.4-1.9-8.34-4.66-11.7-6.4l2.98-5.09
		l-11.95-6.68c1.25-2,2.69-4.58,3.96-6.84c1.27-2.27,2.59-4.63,3.64-6.75l11.83,6.88c2.19-3.91,4.43-7.93,6.46-11.8
		c3.59,2.28,8.27,5.03,11.98,7.1c-1.71,2.83-4.18,6.99-6.71,11.52c10.24,5.86,21.72,12.41,34.39,19.49
		c4.33,2.42,6.59,1.52,8.66-2.19c1.27-2.27,1.96-4.72,2.01-6.99c4.09,1.88,9.65,3.77,13.18,5.2
		C461.11,378.24,460.58,380.64,458.16,384.97z M474.53,323.99c-1.73-0.37-3.78-0.94-5.83-1.5l-0.15,0.69
		c6.52,3.34,8.77,9.14,7.1,16.87c-2.09,9.69-7.42,14.21-23.45,10.75c-15.69-3.39-19.36-11.55-16.34-25.5
		c0.72-3.34,1.54-6.55,2.64-8.85c-3.9-0.96-7.93-1.83-11.62-2.63c-4.73-1.02-8.41,0.36-9.4,4.97c-1.07,4.96,0.89,8.16,11.72,10.02
		c-0.63,1.8-1.15,4.22-1.63,6.41c-0.67,3.11-1.21,6.14-1.31,8.29c-16.51-2.36-25.78-10.88-22.24-27.26
		c3.36-15.57,12.83-20.29,25.87-17.47c11.42,2.47,19.42,4.56,29.57,6.75c8.3,1.79,19.02,3.62,22.07,3.44l-2.72,12.57
		C478.2,324.3,477.64,324.66,474.53,323.99z"/>
	<path class="st0" d="M291.2,466.65c-2.15-0.14-4.51-0.02-6.97,0.23c-5.75,0.58-8.25,2.85-7.36,11.65
		c0.91,9.04,2.62,10.65,7.43,10.16c5.75-0.58,8.52-6.08,7.64-14.77C291.71,471.7,291.46,469.23,291.2,466.65z"/>
	<path class="st1" d="M394.28,268.89c0-70.61-57.24-127.86-127.86-127.86s-127.86,57.24-127.86,127.86
		c0,70.61,57.24,127.86,127.86,127.86S394.28,339.51,394.28,268.89z M350.99,323.71c0,22.36-43.57,34.42-84.56,34.42
		s-84.56-12.06-84.56-34.42V253.9c0-11.43,12.13-21.44,33.44-27.76v-42.5c0-15.48,26.34-23.83,51.13-23.83
		c24.78,0,51.13,8.35,51.13,23.83v42.5c21.31,6.31,33.44,16.32,33.44,27.76V323.71z"/>
	<circle class="st1" cx="454.55" cy="268.89" r="13.58"/>
	<circle class="st1" cx="78.3" cy="268.89" r="13.58"/>
	<path class="st1" d="M322.67,310.73c-18.47,0-7.97-17.75-28.34-17.75c-12.35,0-11.71,16.3-27.41,16.3
		c-10.29,0-9.81-13.79-20.49-14.79c-17.67-1.66-23.42,12.16-35.11,11.79c-7.6-0.24-15.49-8.12-19.47-17.01v34.45
		c0,11.53,31.89,24.42,74.56,24.42c20.67,0,40.04-2.95,54.53-8.31c12.55-4.64,20.04-10.66,20.04-16.11v-25.97
		C337.98,305.07,332.2,310.73,322.67,310.73z"/>
	<path class="st1" d="M225.3,236.51c0,3.46,7.51,9.62,24.21,12.46c5.33,0.92,11.01,1.38,16.91,1.38s11.59-0.46,16.9-1.38
		c16.71-2.84,24.22-9,24.22-12.46v-15.69c-1.77,2.3-4.77,3.67-9.74,3.67c-13.87,0,1-12.62-14.29-12.62
		c-9.28,0-4.76,10.41-16.55,10.41c-7.73,0-6.77-12.29-14.79-13.29c-13.27-1.66-8.28,9.15-17.05,8.78c-4.22-0.18-7.67-1.74-9.82-4.32
		V236.51z"/>
	<path class="st0" d="M317.55,226.14v-42.5c0-15.48-26.34-23.83-51.13-23.83c-24.79,0-51.13,8.35-51.13,23.83v42.5
		c-21.31,6.31-33.44,16.32-33.44,27.76v69.81c0,22.36,43.57,34.42,84.56,34.42s84.56-12.06,84.56-34.42V253.9
		C350.99,242.46,338.86,232.45,317.55,226.14z M320.95,339.82c-14.49,5.36-33.85,8.31-54.53,8.31c-42.68,0-74.56-12.89-74.56-24.42
		v-34.45c3.98,8.89,11.87,16.77,19.47,17.01c11.69,0.38,17.43-13.44,35.11-11.79c10.68,1,10.2,14.79,20.49,14.79
		c15.69,0,15.05-16.3,27.41-16.3c20.37,0,9.87,17.75,28.34,17.75c9.53,0,15.31-5.65,18.32-12.99v25.97
		C340.99,329.16,333.5,335.18,320.95,339.82z M235.12,217.75c8.78,0.38,3.78-10.44,17.05-8.78c8.02,1,7.06,13.29,14.79,13.29
		c11.79,0,7.27-10.41,16.55-10.41c15.3,0,0.42,12.62,14.29,12.62c4.98,0,7.97-1.37,9.74-3.67v15.69c0,3.46-7.51,9.62-24.22,12.46
		c-5.32,0.92-11,1.38-16.9,1.38s-11.59-0.46-16.91-1.38c-16.7-2.84-24.21-9-24.21-12.46v-23.07
		C227.44,216.01,230.9,217.57,235.12,217.75z"/>
	<path class="st1" d="M84.04,348.07c1.39-0.28,2.66-0.55,4.14-0.97c-0.61-1.8-1.18-4.57-1.72-7.23c-0.52-2.54-1.02-4.97-1.19-6.98
		l-4.16,0.85c-7.4,1.52-11.32,0.03-12.64-6.44c-1.45-7.05,1.11-10.47,21.31-14.73c19.77-4.05,23.88-1.64,25.27,5.18
		c1.35,6.59-0.63,9.28-10.45,11.3c-1.16,0.24-2.54,0.52-4.19,0.74c0.47,1.71,1.02,4.37,1.54,6.91c0.54,2.66,1.09,5.32,1.33,7.08
		c1.64-0.22,3.14-0.53,4.53-0.81c18.96-3.89,24-13.35,21.02-27.92c-3.41-16.65-16.08-22.6-42.2-17.25
		c-27.05,5.54-35.29,15.91-32.02,31.86C58.37,348.03,69.35,351.08,84.04,348.07z"/>
	<path class="st1" d="M138.82,388.49c11.39-6.94,15-16.88,6.72-30.48c-8.72-14.31-21.3-14.1-34.9-4.44c1.41,1.63,3.1,4.19,4.76,6.91
		c1.17,1.91,2.46,4.03,3.24,5.77c9.13-6.11,12.75-5.14,15.39-0.81c2.46,4.03,0.74,7.56-3.39,10.08c-3.22,1.96-6.75,4.11-10.24,6.1
		c-0.79-2.42-2.4-5.31-4.18-8.23c-7.43-12.19-15.71-15.58-29.41-7.23c-14.01,8.53-14.75,15.48-9.59,23.94
		c4.11,6.75,9.74,9.4,16.76,7.33l0.37,0.6c-1.88,1-3.75,2.01-5.26,2.93c-2.72,1.66-2.88,2.31-1.4,4.72l6.69,10.98
		c2.09-2.24,11.11-8.29,18.37-12.71C121.61,398.56,128.84,394.57,138.82,388.49z M90.62,388.98c-2.52-4.13-1.8-6.36,5.96-11.09
		c7.56-4.6,10.68-3.33,13.69,1.61c1.29,2.12,2.42,4.19,3.22,6.19c-2.22,1.35-4.33,2.64-6.25,3.81
		C99.78,394.04,93.63,393.92,90.62,388.98z"/>
	<path class="st1" d="M185.32,401.07c-6.1-4.85-12.34-5.14-18.36-1.94l-0.48-0.53c0.9-0.94,1.63-1.87,2.44-2.88
		c1.17-1.48,2.15-2.51,3.18-3.81l-12.38-9.84c-5.86,7.55-12.89,16.59-22.07,28.13c-12.48,15.7-25.21,31.51-32.74,40.6l12.47,9.91
		c2.86-3.6,5.27-6.82,8.06-10.33c1.84-2.31,3.6-4.53,5.2-6.72l0.28,0.22c-0.76,5.12,0.97,10.72,7.16,15.64
		c8.87,7.05,20.48,3.62,37.96-18.36C193.45,419.29,194.74,408.56,185.32,401.07z M164.13,431.71
		c-12.85,16.16-17.97,17.67-23.14,13.56c-2.96-2.35-4.84-4.91-5.81-7.48l20.34-25.58c6.68-8.4,12.49-8.31,16.83-4.86
		C176.78,410.87,176.68,415.92,164.13,431.71z"/>
	<path class="st1" d="M206.75,402.04c-1.2,2.82-0.9,6.03,6.37,9.13c6.95,2.96,9.58,1,10.78-1.82c1.3-3.04,0.5-5.69-6.34-8.6
		C210.5,397.74,208.04,399,206.75,402.04z"/>
	<path class="st1" d="M203.67,413.17c-4.06,9.82-8.31,19.8-13.72,32.5c-5.74,13.46-10.5,24.64-14.96,34.8l14.33,6.11
		c3.95-9.86,7.83-18.98,14.5-34.61c5.46-12.81,9.76-22.9,14.19-32.69L203.67,413.17z"/>
	<path class="st1" d="M245.34,412.26c-2.34-0.33-5-0.85-7.55-1.34s-5.45-1.05-7.74-1.62l-2.6,13.44l-5.77-1.24
		c-0.6,3.73-1.68,9.29-2.42,13.11l5.54,1.19c-3.01,14.92-5.86,29.04-8.01,40.16c-2.22,11.47,1.05,20.04,14.84,22.7
		c4.87,0.94,7.32,0.7,11.57,0.44c0.25-3.8,0.31-9.68,0.81-14.15c-2.17,0.66-4.72,0.77-7.27,0.28c-4.17-0.81-5.73-2.67-4.79-7.54
		c2.76-14.25,5.38-27.21,7.74-38.77c5.1,0.99,9.83,2.02,13.05,2.76c0.81-4.17,1.95-9.48,2.99-13.6c-4.31-0.71-8.83-1.59-13.23-2.44
		L245.34,412.26z"/>
	<path class="st1" d="M304.67,445.01c-1.34-13.27-8.74-20.82-24.59-19.22c-16.67,1.68-21.92,13.12-19.07,29.56
		c2.08-0.57,5.12-0.99,8.29-1.31c2.23-0.23,4.7-0.47,6.6-0.43c-1.57-10.87,0.87-13.73,5.92-14.24c4.7-0.47,7.14,2.6,7.63,7.41
		c0.38,3.76,0.79,7.87,1.08,11.87c-2.53-0.34-5.82-0.12-9.23,0.22c-14.21,1.43-20.83,7.44-19.22,23.41
		c1.65,16.32,7.59,19.99,17.46,18.99c7.87-0.79,12.69-4.72,13.85-11.95l0.7-0.07c0.1,2.12,0.19,4.25,0.37,6.01
		c0.32,3.17,0.84,3.59,3.66,3.31l12.8-1.29c-1.12-2.85-2.68-13.61-3.53-22.06C306.32,464.89,305.84,456.63,304.67,445.01z
		 M284.29,488.7c-4.81,0.49-6.52-1.12-7.43-10.16c-0.89-8.8,1.61-11.07,7.36-11.65c2.46-0.25,4.83-0.37,6.97-0.23
		c0.26,2.58,0.51,5.05,0.74,7.28C292.81,482.62,290.04,488.12,284.29,488.7z"/>
	<path class="st1" d="M317.3,398.73l-14.81,5.55c5.15,13.07,10.5,27.32,16.42,43.12c5.76,15.36,11.43,30.5,15.65,42.4l14.7-5.51
		c-4.92-12.78-9.27-24.38-15.77-41.72C326.56,424.12,321.63,410.97,317.3,398.73z"/>
	<path class="st1" d="M329.76,393.45c-6.61,3.89-7.06,6.61-5.39,9.46c1.55,2.65,4.31,4.31,11.13,0.3c6.51-3.83,6.5-7.1,4.95-9.75
		C338.77,390.62,336.17,389.69,329.76,393.45z"/>
	<path class="st1" d="M344.92,404.11l-13.43,7.89c5.48,9.1,10.98,18.46,17.98,30.36c7.41,12.62,13.57,23.09,19.09,32.72l13.43-7.89
		c-5.58-9.04-10.61-17.58-19.21-32.23C355.72,422.95,350.16,413.49,344.92,404.11z"/>
	<path class="st1" d="M389.81,405.68c-9.13,4.35-13.21,2.73-16.6-0.72c-3.31-3.36-3.21-6.12,0.83-10.09
		c4.12-4.06,7.12-3.7,11.18,0.42c1.24,1.26,2.15,2.19,2.81,3.03c1.09-1.25,2.78-3.07,4.63-4.89c2.02-1.99,4.12-3.89,5.55-5.13
		c-1.07-1.42-2.32-2.69-3.39-3.78c-9.35-9.5-18.03-9.91-29.46,1.35c-10.85,10.68-12.18,20.26-3.07,29.51
		c8.11,8.24,16.94,10.65,30.84,4.09c8.29-4.02,13.12-2.98,16.52,0.47c3.48,3.53,3.62,6.54-0.33,10.43
		c-4.63,4.55-7.88,4.28-12.18-0.1c-0.83-0.84-1.57-1.76-2.65-2.86c-1.18,1.32-2.95,3.23-4.8,5.05c-2.27,2.23-4.2,3.97-5.46,5.05
		c0.66,0.84,1.74,2.1,3.39,3.78c9.02,9.17,18.19,10.74,30.72-1.59c11.44-11.26,10.93-21.19,2.16-30.1
		C411.88,400.85,402.46,399.69,389.81,405.68z"/>
	<path class="st1" d="M447.01,375.9c-2.07,3.71-4.33,4.61-8.66,2.19c-12.67-7.08-24.15-13.63-34.39-19.49
		c2.53-4.53,5-8.7,6.71-11.52c-3.71-2.07-8.39-4.82-11.98-7.1c-2.03,3.87-4.27,7.89-6.46,11.8l-11.83-6.88
		c-1.05,2.12-2.37,4.49-3.64,6.75c-1.27,2.27-2.71,4.84-3.96,6.84l11.95,6.68l-2.98,5.09c3.35,1.74,8.3,4.5,11.7,6.4l2.87-4.89
		c13.23,7.53,25.74,14.66,35.62,20.18c10.2,5.7,19.36,5.28,26.21-6.98c2.42-4.33,2.95-6.73,4.04-10.85
		c-3.53-1.43-9.09-3.32-13.18-5.2C448.97,371.18,448.28,373.63,447.01,375.9z"/>
	<path class="st1" d="M459.44,305.52c-10.15-2.19-18.15-4.28-29.57-6.75c-13.03-2.82-22.5,1.9-25.87,17.47
		c-3.54,16.38,5.73,24.9,22.24,27.26c0.1-2.15,0.64-5.17,1.31-8.29c0.47-2.19,1-4.61,1.63-6.41c-10.83-1.86-12.79-5.06-11.72-10.02
		c1-4.61,4.67-5.99,9.4-4.97c3.69,0.8,7.73,1.67,11.62,2.63c-1.1,2.3-1.91,5.5-2.64,8.85c-3.01,13.96,0.66,22.11,16.34,25.5
		c16.03,3.46,21.36-1.06,23.45-10.75c1.67-7.73-0.58-13.53-7.1-16.87l0.15-0.69c2.05,0.56,4.1,1.13,5.83,1.5
		c3.11,0.67,3.68,0.31,4.27-2.46l2.72-12.57C478.46,309.14,467.75,307.31,459.44,305.52z M465.15,331.62
		c-1.02,4.73-3.08,5.85-11.96,3.94c-8.65-1.87-10.04-4.95-8.82-10.6c0.52-2.42,1.14-4.7,1.93-6.71c2.54,0.55,4.96,1.07,7.15,1.54
		C461.99,321.64,466.37,325.97,465.15,331.62z"/>
	<path class="st1" d="M126.54,249.45l5.31-16.51c-6.17-1.61-14-3.88-22.91-6.62c1.09-3,1.85-4.98,2.93-8.35
		c5.38-16.74-0.38-28.13-22.51-35.24c-23.25-7.47-33.9-1.35-39.13,14.94l-7.94,24.71c11.45,3.31,24.41,7.35,42.27,13.09
		C102.53,241.24,114.52,245.22,126.54,249.45z M63.29,204.46c2.71-8.42,7.27-11.05,20.86-6.68c13.93,4.48,15.88,8.82,12.81,18.37
		c-0.76,2.36-1.44,4.49-1.99,5.81c-10.37-3.21-21.83-6.89-33.74-10.72C61.88,208.84,62.82,205.92,63.29,204.46z"/>
	<path class="st1" d="M106.52,171.54c1.04-1.89,2.85-4.37,4.82-6.87c1.39-1.76,2.93-3.7,4.28-5.04c-8.9-6.43-9.26-10.17-6.11-14.15
		c2.93-3.7,6.84-3.32,10.63-0.32c2.96,2.34,6.2,4.9,9.28,7.48c-2,1.58-4.14,4.1-6.26,6.78c-8.85,11.2-9.15,20.14,3.44,30.09
		c12.87,10.17,19.64,8.45,25.79,0.68c4.9-6.2,5.44-12.4,1.05-18.27l0.44-0.56c1.59,1.41,3.19,2.82,4.57,3.92
		c2.5,1.98,3.16,1.9,4.92-0.32l7.98-10.09c-2.83-1.18-11.64-7.54-18.3-12.81c-8.15-6.44-14.41-11.84-23.57-19.08
		c-10.46-8.27-21.04-8.21-30.92,4.29C88.17,150.42,92.73,162.15,106.52,171.54z M130.96,162.88c1.54-1.94,3.09-3.72,4.69-5.17
		c2.04,1.61,3.98,3.15,5.74,4.54c6.85,5.41,8.88,11.23,5.29,15.76c-3,3.8-5.34,3.9-12.47-1.73
		C127.26,170.79,127.37,167.42,130.96,162.88z"/>
	<path class="st1" d="M172.24,127.44c8.95-2.2,13.46-0.17,16.05,3.91c2.66,4.18,2.17,7.15-2.51,10.13
		c-5.48,3.48-8.6,2.53-11.89-2.64c-0.63-1-1.17-2.05-1.99-3.35c-1.43,1.05-3.56,2.54-5.75,3.94c-2.69,1.71-4.94,3-6.4,3.79
		c0.47,0.96,1.26,2.42,2.52,4.41c6.9,10.85,15.54,14.31,30.37,4.87c13.54-8.61,15.13-18.43,8.41-28.99
		c-6.59-10.35-15.56-13.46-29.18-10.25c-9.84,2.34-13.49-0.09-16.08-4.17c-2.53-3.98-1.85-6.65,2.92-9.69
		c4.88-3.1,7.74-2.13,10.84,2.75c0.95,1.49,1.65,2.59,2.12,3.55c1.33-0.98,3.36-2.41,5.55-3.81c2.39-1.52,4.84-2.94,6.5-3.85
		c-0.75-1.62-1.7-3.12-2.52-4.41c-7.16-11.25-15.56-13.46-29.1-4.85c-12.84,8.17-16.15,17.27-9.18,28.22
		C149.14,126.75,157.27,130.95,172.24,127.44z"/>
	<path class="st1" d="M194.89,82.39l5.48-1.43c4.05,14.67,7.87,28.56,10.97,39.45c3.19,11.24,9.98,17.41,23.48,13.57
		c4.77-1.35,6.84-2.68,10.53-4.83c-1.49-3.5-4.09-8.77-5.65-12.99c-1.64,1.57-3.86,2.81-6.36,3.52c-4.09,1.16-6.32,0.2-7.68-4.57
		c-3.97-13.96-7.47-26.71-10.58-38.09c4.99-1.42,9.68-2.63,12.89-3.42c-1.16-4.09-2.53-9.34-3.47-13.49
		c-4.17,1.31-8.59,2.56-12.91,3.79l-3.51-13.23c-2.24,0.76-4.85,1.5-7.35,2.21c-2.5,0.71-5.33,1.52-7.64,2.05l3.74,13.16l-5.71,1.5
		C192.27,73.2,193.82,78.65,194.89,82.39z"/>
	<path class="st1" d="M268.77,131c17.58,0.3,22.19-7.42,22.24-24.29c-1.89,0.09-4.02,0.17-6.85,0.12c-2.71-0.05-5.07-0.2-6.96-0.35
		c-0.27,9.32-1.98,12.59-8.12,12.49c-6.61-0.11-9.61-3.94-9.68-20.81c3.54,0.06,8.5,0.02,13.57,0.11
		c6.49,0.11,13.33,0.34,17.69,0.53c0.29-2.95,0.63-9.67,0.73-15.45c0.3-17.81-4.84-27.7-21.13-27.97
		c-15.34-0.26-24.83,9.5-25.31,38.17C244.5,121.63,253.32,130.74,268.77,131z M269.49,67.53c6.02,0.1,8.31,3.8,8.13,14.89
		c-0.05,2.95-0.2,5.07-0.35,6.6c-5.43,0.03-11.8,0.04-17.58-0.3C260.58,71.03,263.82,67.43,269.49,67.53z"/>
	<path class="st1" d="M322.65,93.81c5.23-19,8.95-32.54,12.63-44.99l-15.25-4.2c-3.5,13.6-7.54,28.28-12.01,44.55
		c-4.35,15.81-8.64,31.4-12.22,43.51l15.13,4.16C314.44,123.62,317.73,111.67,322.65,93.81z"/>
	<path class="st1" d="M336.29,149.97c15.2,8.83,22.99,4.35,31.27-10.35c-1.69-0.85-3.59-1.81-6.04-3.23
		c-2.35-1.36-4.33-2.65-5.9-3.7c-4.79,8-7.88,10.03-13.18,6.94c-5.71-3.32-6.47-8.13,1.71-22.89c3.06,1.78,7.4,4.17,11.79,6.72
		c5.61,3.26,11.47,6.8,15.18,9.1c1.69-2.43,5.27-8.13,8.18-13.13c8.95-15.4,9.28-26.54-4.79-34.72
		c-13.26-7.71-26.3-3.82-40.71,20.97C319.68,129.94,322.93,142.2,336.29,149.97z M367.89,94.9c5.2,3.02,5.41,7.37-0.17,16.96
		c-1.48,2.55-2.65,4.33-3.53,5.59c-4.75-2.63-10.32-5.73-15.2-8.83C358.4,93.62,362.99,92.06,367.89,94.9z"/>
	<path class="st1" d="M369.96,175.99c7.81-7.89,20.51-19.7,30.2-28.69c9.77-9.07,13.95-9.25,19.26-3.71c1.2,1.3,2.56,3.1,3.33,4.8
		c3.54-3.13,9.21-7.59,12.21-9.74c-0.86-1.62-2.04-3.42-3.41-4.89c-4.49-5.01-10.47-5.9-19.25-0.96l-0.48-0.69
		c3.62-3.21,6.64-5.85,9.49-8.33l-9-9.68c-7.35,6.99-14.96,14.06-26.12,24.42c-11.67,10.84-19.89,18.47-27.49,25.37L369.96,175.99z"
		/>
	<path class="st1" d="M479.02,154.55c-4.06-1.29-23.52-8.41-28.14-10.2c-0.58,1.58-1.54,3.66-2.52,5.47
		c4.2,2.45,21.75,12.61,25.26,15.06C475.24,161.6,477.49,157.52,479.02,154.55z"/>
	<path class="st1" d="M382.14,191.31l7.95,13.4c9.01-5.62,17.54-10.68,32.15-19.35c11.97-7.1,21.41-12.7,30.77-17.98l-7.95-13.4
		c-9.07,5.52-18.41,11.06-30.28,18.1C402.2,179.55,391.74,185.75,382.14,191.31z"/>
	<path class="st1" d="M471.59,210.35c-4.54-16.13-16.71-19.33-32.41-13.69c0.92,1.95,1.86,4.87,2.72,7.94
		c0.61,2.16,1.28,4.54,1.56,6.43c10.44-3.42,13.67-1.51,15.04,3.37c1.28,4.54-1.33,7.48-5.99,8.79c-3.64,1.02-7.61,2.14-11.51,3.11
		c-0.1-2.55-0.88-5.76-1.81-9.05c-3.86-13.75-10.92-19.24-26.37-14.9c-15.79,4.44-18.38,10.93-15.7,20.47
		c2.14,7.61,6.84,11.68,14.17,11.58l0.19,0.68c-2.08,0.46-4.15,0.92-5.86,1.4c-3.07,0.86-3.39,1.44-2.63,4.17l3.48,12.38
		c2.62-1.59,12.94-4.99,21.12-7.29c10-2.81,18.04-4.71,29.29-7.87C469.74,234.28,475.9,225.69,471.59,210.35z M426.21,230.34
		c-8.41,2.36-14.3,0.59-15.86-4.98c-1.31-4.66-0.02-6.61,8.73-9.07c8.52-2.4,11.19-0.33,12.75,5.24c0.67,2.39,1.2,4.69,1.43,6.83
		C430.76,229.06,428.37,229.73,426.21,230.34z"/>
</g>
</svg>
